<svg width="14" height="14" viewBox="0 0 14 14" fill="none" xmlns="http://www.w3.org/2000/svg">
<path d="M13.2889 11.9609C13.3763 12.048 13.4457 12.1514 13.493 12.2654C13.5403 12.3794 13.5647 12.5015 13.5647 12.6249C13.5647 12.7483 13.5403 12.8705 13.493 12.9844C13.4457 13.0984 13.3763 13.2019 13.2889 13.289C13.112 13.4636 12.8734 13.5615 12.6249 13.5615C12.3763 13.5615 12.1377 13.4636 11.9608 13.289L6.99986 8.32804L2.03892 13.289C1.86201 13.4636 1.62344 13.5615 1.37486 13.5615C1.12628 13.5615 0.887711 13.4636 0.710798 13.289C0.623398 13.2019 0.554051 13.0984 0.506733 12.9844C0.459416 12.8705 0.435059 12.7483 0.435059 12.6249C0.435059 12.5015 0.459416 12.3794 0.506733 12.2654C0.554051 12.1514 0.623398 12.048 0.710798 11.9609L5.67174 6.99992L0.710798 2.03898C0.534678 1.86286 0.435734 1.62399 0.435734 1.37492C0.435734 1.25159 0.460026 1.12947 0.507221 1.01553C0.554417 0.901589 0.623592 0.798061 0.710798 0.710855C0.798004 0.623649 0.901533 0.554473 1.01547 0.507278C1.12941 0.460082 1.25153 0.435791 1.37486 0.435791C1.62393 0.435791 1.8628 0.534735 2.03892 0.710855L6.99986 5.67179L11.9608 0.710855C12.1369 0.534735 12.3758 0.435791 12.6249 0.435791C12.8739 0.435791 13.1128 0.534735 13.2889 0.710855C13.465 0.886975 13.564 1.12585 13.564 1.37492C13.564 1.62399 13.465 1.86286 13.2889 2.03898L8.32799 6.99992L13.2889 11.9609Z" fill="black"/>
</svg>
