<svg width="18" height="18" viewBox="0 0 18 18" fill="none" xmlns="http://www.w3.org/2000/svg">
<path d="M8.99996 17.3332C7.86107 17.3332 6.78468 17.1143 5.77079 16.6765C4.7569 16.2393 3.87163 15.6421 3.11496 14.8848C2.35774 14.1282 1.76051 13.2429 1.32329 12.229C0.885515 11.2151 0.666626 10.1387 0.666626 8.99984C0.666626 7.84706 0.885515 6.76734 1.32329 5.76067C1.76051 4.75345 2.35774 3.8715 3.11496 3.11484C3.87163 2.35761 4.7569 1.76011 5.77079 1.32234C6.78468 0.885115 7.86107 0.666504 8.99996 0.666504C10.1527 0.666504 11.2325 0.885115 12.2391 1.32234C13.2463 1.76011 14.1283 2.35761 14.885 3.11484C15.6422 3.8715 16.2394 4.75345 16.6766 5.76067C17.1144 6.76734 17.3333 7.84706 17.3333 8.99984V10.2082C17.3333 11.0276 17.0522 11.7254 16.49 12.3015C15.9272 12.8782 15.2361 13.1665 14.4166 13.1665C13.9166 13.1665 13.4513 13.0554 13.0208 12.8332C12.5902 12.6109 12.2361 12.3193 11.9583 11.9582C11.5833 12.3332 11.1425 12.6284 10.6358 12.844C10.1286 13.059 9.58329 13.1665 8.99996 13.1665C7.84718 13.1665 6.86468 12.7601 6.05246 11.9473C5.23968 11.1351 4.83329 10.1526 4.83329 8.99984C4.83329 7.84706 5.23968 6.86428 6.05246 6.0515C6.86468 5.23928 7.84718 4.83317 8.99996 4.83317C10.1527 4.83317 11.1355 5.23928 11.9483 6.0515C12.7605 6.86428 13.1666 7.84706 13.1666 8.99984V10.2082C13.1666 10.6109 13.2916 10.9268 13.5416 11.1557C13.7916 11.3851 14.0833 11.4998 14.4166 11.4998C14.75 11.4998 15.0416 11.3851 15.2916 11.1557C15.5416 10.9268 15.6666 10.6109 15.6666 10.2082V8.99984C15.6666 7.18039 15.0102 5.61428 13.6975 4.3015C12.3852 2.98928 10.8194 2.33317 8.99996 2.33317C7.18051 2.33317 5.6144 2.98928 4.30163 4.3015C2.9894 5.61428 2.33329 7.18039 2.33329 8.99984C2.33329 10.8193 2.9894 12.3851 4.30163 13.6973C5.6144 15.0101 7.18051 15.6665 8.99996 15.6665H13.1666V17.3332H8.99996ZM8.99996 11.4998C9.6944 11.4998 10.2847 11.2568 10.7708 10.7707C11.2569 10.2846 11.5 9.69428 11.5 8.99984C11.5 8.30539 11.2569 7.71511 10.7708 7.229C10.2847 6.74289 9.6944 6.49984 8.99996 6.49984C8.30551 6.49984 7.71524 6.74289 7.22913 7.229C6.74301 7.71511 6.49996 8.30539 6.49996 8.99984C6.49996 9.69428 6.74301 10.2846 7.22913 10.7707C7.71524 11.2568 8.30551 11.4998 8.99996 11.4998Z" fill="#898989"/>
</svg>
