<svg width="18" height="18" viewBox="0 0 18 18" fill="none" xmlns="http://www.w3.org/2000/svg">
<path fill-rule="evenodd" clip-rule="evenodd" d="M12.7934 17.4442C11.5934 17.4001 8.19254 16.9301 4.63087 13.3692C1.07004 9.80756 0.600874 6.40756 0.555874 5.20672C0.489207 3.37672 1.89087 1.59922 3.51004 0.905058C3.70502 0.820863 3.91854 0.788808 4.12965 0.812037C4.34076 0.835266 4.5422 0.912982 4.71421 1.03756C6.04754 2.00922 6.96754 3.47922 7.75754 4.63506C7.93136 4.889 8.00568 5.19801 7.96634 5.50322C7.927 5.80843 7.77674 6.0885 7.54421 6.29006L5.91837 7.49756C5.83983 7.55428 5.78453 7.63758 5.76277 7.73199C5.74101 7.8264 5.75425 7.92551 5.80004 8.01089C6.16837 8.68006 6.82337 9.67672 7.57337 10.4267C8.32421 11.1767 9.36754 11.8751 10.0834 12.2851C10.1731 12.3354 10.2788 12.3495 10.3786 12.3244C10.4784 12.2993 10.5648 12.2369 10.62 12.1501L11.6784 10.5392C11.8729 10.2808 12.16 10.1076 12.4794 10.056C12.7987 10.0045 13.1257 10.0785 13.3917 10.2626C14.5642 11.0742 15.9325 11.9784 16.9342 13.2609C17.0689 13.4341 17.1546 13.6404 17.1823 13.8581C17.21 14.0758 17.1787 14.2969 17.0917 14.4984C16.3942 16.1259 14.6292 17.5117 12.7934 17.4442Z" fill="#898989"/>
</svg>
