<svg width="22" height="19" viewBox="0 0 22 19" fill="none" xmlns="http://www.w3.org/2000/svg">
<path d="M21.1906 15.625L12.95 1.375C12.7527 1.03228 12.4686 0.747607 12.1262 0.549663C11.7839 0.35172 11.3954 0.247498 11 0.247498C10.6045 0.247498 10.2161 0.35172 9.87374 0.549663C9.53139 0.747607 9.24727 1.03228 9.04999 1.375L0.80936 15.625C0.609173 15.966 0.502786 16.3539 0.500999 16.7493C0.499213 17.1447 0.602092 17.5335 0.79919 17.8763C0.996287 18.2191 1.28058 18.5036 1.62321 18.7009C1.96583 18.8983 2.35458 19.0015 2.74999 19H19.25C19.6454 19.0015 20.0341 18.8983 20.3768 18.7009C20.7194 18.5036 21.0037 18.2191 21.2008 17.8763C21.3979 17.5335 21.5008 17.1447 21.499 16.7493C21.4972 16.3539 21.3908 15.966 21.1906 15.625ZM10.25 7.75C10.25 7.55109 10.329 7.36032 10.4697 7.21967C10.6103 7.07902 10.8011 7 11 7C11.1989 7 11.3897 7.07902 11.5303 7.21967C11.671 7.36032 11.75 7.55109 11.75 7.75V11.5C11.75 11.6989 11.671 11.8897 11.5303 12.0303C11.3897 12.171 11.1989 12.25 11 12.25C10.8011 12.25 10.6103 12.171 10.4697 12.0303C10.329 11.8897 10.25 11.6989 10.25 11.5V7.75ZM11 16C10.7775 16 10.56 15.934 10.375 15.8104C10.19 15.6868 10.0458 15.5111 9.96062 15.3055C9.87547 15.1 9.85319 14.8738 9.8966 14.6555C9.94001 14.4373 10.0472 14.2368 10.2045 14.0795C10.3618 13.9222 10.5623 13.815 10.7805 13.7716C10.9987 13.7282 11.2249 13.7505 11.4305 13.8356C11.6361 13.9208 11.8118 14.065 11.9354 14.25C12.059 14.435 12.125 14.6525 12.125 14.875C12.125 15.1734 12.0065 15.4595 11.7955 15.6705C11.5845 15.8815 11.2984 16 11 16Z" fill="#F02424"/>
</svg>
